<svg width="500" height="454" viewBox="0 0 500 454" fill="none" xmlns="http://www.w3.org/2000/svg">
<path d="M167.908 41.9516C200.896 41.9516 228.292 45.7047 250.322 53.2094C262.69 57.4446 273.713 62.6935 283.35 68.9565C289.545 106.924 309.09 140.404 337.009 164.424C338.648 176.422 339.47 189.084 339.47 202.393V433.902C323.489 437.427 301.231 441.521 272.809 446.183C244.272 450.959 209.914 453.233 169.393 453.233C143.938 453.233 120.766 450.958 100.105 446.524C79.3311 442.089 61.5243 434.698 46.5713 424.579C31.6182 414.345 20.0898 401.04 12.0996 384.666C3.99539 368.293 5.01373e-05 348.167 0 324.289C0 301.433 4.56573 281.989 13.8115 266.07C23.0573 250.151 35.3854 237.416 50.9092 227.978C66.3187 218.54 84.1253 211.604 104.101 207.397C124.076 203.19 144.851 201.029 166.311 201.029C180.807 201.029 193.705 201.712 204.892 202.962C216.078 204.213 225.21 205.804 232.287 207.851V197.39C232.287 178.515 226.579 163.278 215.051 151.793C203.522 140.309 183.546 134.624 155.124 134.624C136.062 134.624 117.342 135.988 98.8506 138.717C80.3591 141.446 64.3783 145.312 50.9092 150.315L36.6406 60.7133C43.1469 58.7803 51.2517 56.6203 60.9541 54.3462C70.6564 52.072 81.2721 50.1391 92.8008 48.3198C104.329 46.6142 116.429 45.136 129.099 43.8852C141.997 42.6344 154.896 41.9516 167.908 41.9516ZM187.428 275.735C176.926 275.735 167.11 276.303 157.75 277.554C148.504 278.805 140.399 281.193 133.437 284.718C126.474 288.243 120.994 292.905 116.999 298.931C113.004 304.958 110.95 312.349 110.95 321.332C110.95 338.729 116.771 350.782 128.528 357.491C140.285 364.199 156.38 367.611 176.926 367.611C187.884 367.611 198.386 367.383 208.431 366.815C218.361 366.36 226.352 365.564 232.401 364.54V280.169C227.95 279.146 221.101 278.237 212.197 277.213C203.18 276.19 194.961 275.735 187.428 275.735Z" fill="#F28820"/>
<path d="M375 188.749C395.231 197.98 417.718 203.125 441.406 203.125C462.088 203.125 481.853 199.204 500 192.067V437.5H375V188.749Z" fill="#25A8E0"/>
<circle cx="439.56" cy="48.9344" r="48.9344" fill="#25A8E0"/>
</svg>
